<svg width="50" height="50" viewBox="0 0 50 50" fill="none" xmlns="http://www.w3.org/2000/svg">
<path d="M22.9507 26.2296L10.655 19.2621V33.1971L22.9507 40.1647V26.2296Z" fill="#F790E8" stroke="black" stroke-width="0.819711"/>
<path d="M28.962 31.6447L40.5746 24.1803V32.671L26.6395 41.3942V31.6447L27.5685 32.1579C28.4975 32.671 27.5685 32.1579 28.962 31.6447Z" fill="#FBC903"/>
<path d="M38.1154 15.5733L25 7.37622L21.7212 17.6226L25 24.1803L38.1154 15.5733Z" fill="#9E90F7" stroke="black" stroke-width="0.819711"/>
<path d="M40.5746 17.2127L26.6395 25.4099L28.6887 29.5084L42.6238 20.9014L40.5746 17.2127Z" fill="#9E1946" stroke="black" stroke-width="0.819711"/>
<path d="M4.5073 22.8688C4.26939 22.738 4.06031 22.5605 3.89258 22.347C3.72485 22.1335 3.60191 21.8884 3.53112 21.6263C3.46033 21.3642 3.44315 21.0905 3.4806 20.8216C3.51805 20.5527 3.60936 20.2941 3.74907 20.0613L6.82298 14.7537C7.04841 14.3438 7.39678 14.0569 7.78615 13.893L23.832 4.87613C24.1599 4.63022 24.5697 4.50726 25.0001 4.50726C25.4304 4.50726 25.8403 4.63022 26.1682 4.87613L42.3575 13.9749C42.7468 14.1799 43.0747 14.5077 43.2592 14.9176L46.2306 20.0818C46.8044 21.0654 46.456 22.3155 45.4929 22.8688L43.4436 24.0574V34.2218C43.4436 35.0005 43.0132 35.6768 42.3575 36.0252L26.1682 45.124C25.8403 45.3699 25.4304 45.4928 25.0001 45.4928C24.5697 45.4928 24.1599 45.3699 23.832 45.124L7.6427 36.0252C7.31416 35.8525 7.03921 35.5931 6.84773 35.2752C6.65624 34.9573 6.55555 34.5929 6.55658 34.2218V22.8688C5.9418 23.2172 5.16307 23.2377 4.5073 22.8688ZM25.0001 8.91321V22.6434L37.2138 15.7783L25.0001 8.91321ZM10.6551 33.0127L22.9508 39.9393V26.1886L10.6551 19.2826V33.0127ZM39.345 33.0127V26.414L29.0986 32.357C28.4224 32.7258 27.6641 32.7053 27.0494 32.3774V39.9393L39.345 33.0127ZM28.7912 27.7871L41.6607 20.3482L40.4721 18.2784L27.6027 25.7173L28.7912 27.7871Z" fill="black"/>
</svg>
