<svg width="300" height="70" viewBox="0 0 323 75" fill="none" xmlns="http://www.w3.org/2000/svg">
<path d="M128.567 44.975C128.067 48.725 126.742 51.95 124.592 54.65C122.442 57.3 119.567 59.35 115.967 60.8C112.417 62.2 108.267 62.9 103.517 62.9C99.4172 62.9 95.6422 62.35 92.1922 61.25C88.7922 60.15 85.8172 58.55 83.2672 56.45C80.7672 54.3 78.8172 51.675 77.4172 48.575C76.0672 45.425 75.3922 41.825 75.3922 37.775C75.3922 33.675 76.0672 30.075 77.4172 26.975C78.8172 23.875 80.7672 21.25 83.2672 19.1C85.8172 16.9 88.7922 15.25 92.1922 14.15C95.6422 13.05 99.4172 12.5 103.517 12.5C108.317 12.5 112.492 13.225 116.042 14.675C119.642 16.125 122.517 18.2 124.667 20.9C126.817 23.6 128.117 26.85 128.567 30.65H120.317C119.617 28.4 118.517 26.5 117.017 24.95C115.517 23.35 113.617 22.125 111.317 21.275C109.067 20.425 106.467 20 103.517 20C99.8172 20 96.4922 20.7 93.5422 22.1C90.5922 23.45 88.2672 25.45 86.5672 28.1C84.9172 30.7 84.0922 33.925 84.0922 37.775C84.0922 41.575 84.9172 44.8 86.5672 47.45C88.2672 50.05 90.5922 52.025 93.5422 53.375C96.4922 54.725 99.8172 55.4 103.517 55.4C106.467 55.4 109.067 55 111.317 54.2C113.567 53.35 115.442 52.15 116.942 50.6C118.442 49 119.542 47.125 120.242 44.975H128.567ZM150.803 62.825C147.403 62.825 144.278 62 141.428 60.35C138.628 58.7 136.378 56.425 134.678 53.525C133.028 50.575 132.203 47.2 132.203 43.4C132.203 39.5 133.053 36.1 134.753 33.2C136.453 30.25 138.753 27.95 141.653 26.3C144.553 24.65 147.803 23.825 151.403 23.825C155.403 23.825 158.578 24.7 160.928 26.45C163.278 28.2 164.953 30.55 165.953 33.5C166.953 36.45 167.453 39.75 167.453 43.4C167.453 45.45 167.153 47.625 166.553 49.925C165.953 52.175 165.003 54.275 163.703 56.225C162.453 58.175 160.753 59.775 158.603 61.025C156.503 62.225 153.903 62.825 150.803 62.825ZM153.353 55.925C156.153 55.925 158.528 55.4 160.478 54.35C162.478 53.25 163.978 51.75 164.978 49.85C166.028 47.95 166.553 45.8 166.553 43.4C166.553 40.75 166.028 38.5 164.978 36.65C163.928 34.75 162.428 33.3 160.478 32.3C158.528 31.25 156.153 30.725 153.353 30.725C149.353 30.725 146.253 31.9 144.053 34.25C141.853 36.6 140.753 39.65 140.753 43.4C140.753 45.85 141.278 48.025 142.328 49.925C143.428 51.825 144.928 53.3 146.828 54.35C148.728 55.4 150.903 55.925 153.353 55.925ZM166.553 24.65H174.953V62H167.153C167.153 62 167.103 61.525 167.003 60.575C166.903 59.625 166.803 58.475 166.703 57.125C166.603 55.725 166.553 54.4 166.553 53.15V24.65ZM181.104 24.65H189.429V62H181.104V24.65ZM202.929 31.775C200.229 31.775 197.904 32.35 195.954 33.5C194.054 34.65 192.529 36.05 191.379 37.7C190.229 39.35 189.429 40.95 188.979 42.5L188.904 38.3C188.954 37.75 189.129 36.925 189.429 35.825C189.729 34.675 190.179 33.425 190.779 32.075C191.429 30.725 192.279 29.425 193.329 28.175C194.429 26.875 195.754 25.825 197.304 25.025C198.904 24.225 200.779 23.825 202.929 23.825V31.775ZM203.751 24.65H230.151V31.475H203.751V24.65ZM212.751 14.6H221.151V62H212.751V14.6ZM252.987 62.825C248.837 62.825 245.112 62.075 241.812 60.575C238.512 59.075 235.912 56.875 234.012 53.975C232.112 51.075 231.162 47.55 231.162 43.4C231.162 39.3 232.112 35.8 234.012 32.9C235.912 29.95 238.512 27.7 241.812 26.15C245.112 24.6 248.837 23.825 252.987 23.825C257.137 23.825 260.837 24.6 264.087 26.15C267.337 27.7 269.887 29.95 271.737 32.9C273.637 35.8 274.587 39.3 274.587 43.4C274.587 47.55 273.637 51.075 271.737 53.975C269.887 56.875 267.337 59.075 264.087 60.575C260.837 62.075 257.137 62.825 252.987 62.825ZM252.987 56C255.387 56 257.587 55.525 259.587 54.575C261.587 53.625 263.162 52.2 264.312 50.3C265.512 48.4 266.112 46.1 266.112 43.4C266.112 40.7 265.512 38.4 264.312 36.5C263.162 34.6 261.587 33.15 259.587 32.15C257.637 31.1 255.437 30.575 252.987 30.575C250.537 30.575 248.312 31.075 246.312 32.075C244.312 33.075 242.687 34.525 241.437 36.425C240.237 38.325 239.637 40.65 239.637 43.4C239.637 46.1 240.237 48.4 241.437 50.3C242.637 52.2 244.237 53.625 246.237 54.575C248.287 55.525 250.537 56 252.987 56ZM279.038 24.65H287.363V62H279.038V24.65ZM303.113 23.825C305.263 23.825 307.238 24.125 309.038 24.725C310.888 25.325 312.463 26.25 313.763 27.5C315.113 28.7 316.138 30.2 316.838 32C317.588 33.8 317.963 35.925 317.963 38.375V62H309.638V40.025C309.638 36.975 308.888 34.725 307.388 33.275C305.938 31.775 303.638 31.025 300.488 31.025C298.088 31.025 295.888 31.55 293.888 32.6C291.938 33.6 290.338 34.925 289.088 36.575C287.838 38.175 287.113 39.95 286.913 41.9L286.838 37.85C287.088 36 287.638 34.25 288.488 32.6C289.338 30.9 290.463 29.4 291.863 28.1C293.263 26.75 294.913 25.7 296.813 24.95C298.713 24.2 300.813 23.825 303.113 23.825Z" fill="#191919"/>
<path d="M27.5 38.5L12.5 30V47L27.5 55.5V38.5Z" fill="#F790E8" stroke="black"/>
<path d="M34.8333 45.1062L49 36V46.3582L32 57V45.1062L33.1333 45.7322C34.2667 46.3582 33.1333 45.7322 34.8333 45.1062Z" fill="#FBC903"/>
<path d="M46 25.5L30 15.5L26 28L30 36L46 25.5Z" fill="#9E90F7" stroke="black"/>
<path d="M49 27.5L32 37.5L34.5 42.5L51.5 32L49 27.5Z" fill="#9E1946" stroke="black"/>
<path d="M5.00005 34.4C4.70982 34.2404 4.45475 34.0239 4.25013 33.7635C4.04551 33.503 3.89553 33.204 3.80917 32.8842C3.72282 32.5645 3.70185 32.2306 3.74754 31.9025C3.79322 31.5745 3.90462 31.259 4.07505 30.975L7.82505 24.5C8.10005 24 8.52505 23.65 9.00005 23.45L28.5751 12.45C28.9751 12.15 29.4751 12 30.0001 12C30.5251 12 31.0251 12.15 31.4251 12.45L51.1751 23.55C51.6501 23.8 52.0501 24.2 52.2751 24.7L55.9001 31C56.6001 32.2 56.1751 33.725 55.0001 34.4L52.5001 35.85V48.25C52.5001 49.2 51.9751 50.025 51.1751 50.45L31.4251 61.55C31.0251 61.85 30.5251 62 30.0001 62C29.4751 62 28.9751 61.85 28.5751 61.55L8.82505 50.45C8.42425 50.2394 8.08883 49.923 7.85524 49.5351C7.62164 49.1472 7.4988 48.7028 7.50005 48.25V34.4C6.75005 34.825 5.80005 34.85 5.00005 34.4ZM30.0001 17.375V34.125L44.9001 25.75L30.0001 17.375ZM12.5001 46.775L27.5001 55.225V38.45L12.5001 30.025V46.775ZM47.5001 46.775V38.725L35.0001 45.975C34.1751 46.425 33.2501 46.4 32.5001 46V55.225L47.5001 46.775ZM34.6251 40.4L50.3251 31.325L48.8751 28.8L33.1751 37.875L34.6251 40.4Z" fill="black"/>
</svg>
